<svg width="24" height="26" viewBox="0 0 24 26" fill="none" xmlns="http://www.w3.org/2000/svg">
<path fill-rule="evenodd" clip-rule="evenodd" d="M11.6552 0C11.8484 0 12.0337 0.0856024 12.1703 0.237976C12.3069 0.390349 12.3836 0.597012 12.3836 0.8125V1.64775C18.3933 2.01175 23.3103 6.8575 23.3103 13C23.3103 13 23.3103 13.8125 22.5819 13.8125C22.3648 13.8125 22.0691 13.5769 22.0691 13.5769L22.0632 13.5704L22.0268 13.533C21.7767 13.2907 21.5059 13.0762 21.2182 12.8927C20.5266 12.4408 19.7412 12.1977 18.9397 12.1875C18.0102 12.1875 17.2234 12.5336 16.6611 12.8927C16.3735 13.0762 16.1026 13.2907 15.8525 13.533L15.8161 13.5704L15.8117 13.5753C15.8117 13.5753 15.5145 13.8125 15.2974 13.8125C15.0803 13.8125 14.7846 13.5769 14.7846 13.5769L14.7788 13.5704L14.7423 13.533C14.4922 13.2907 14.2214 13.0762 13.9338 12.8927C13.4537 12.5834 12.9292 12.369 12.3836 12.259V21.9375H11.6552H12.3836V22.0009L12.3763 22.1357C12.3372 22.7584 12.1898 23.3667 11.9422 23.9265C11.6902 24.5034 11.3069 24.9965 10.8306 25.3565C10.2857 25.7579 9.59658 26 8.74138 26C7.88618 26 7.19561 25.7595 6.65219 25.3565C6.17578 24.9966 5.79245 24.5035 5.54058 23.9265C5.27526 23.3258 5.1254 22.6699 5.10059 22.0009V21.9603L5.09914 21.9456V21.9408C5.09914 21.9408 5.09914 21.9375 5.82759 21.9375H5.09914V21.125C5.09914 20.9095 5.17589 20.7028 5.3125 20.5505C5.44911 20.3981 5.63439 20.3125 5.82759 20.3125C6.02078 20.3125 6.20607 20.3981 6.34268 20.5505C6.47929 20.7028 6.55603 20.9095 6.55603 21.125V21.9472L6.5604 22.0188C6.5859 22.4288 6.68237 22.8294 6.8445 23.1985C6.9829 23.5089 7.17959 23.7949 7.46077 24.0029C7.73758 24.2092 8.13968 24.375 8.74138 24.375C9.34308 24.375 9.74518 24.2092 10.022 24.0029C10.3032 23.7949 10.4999 23.5089 10.6397 23.1985C10.8111 22.8077 10.9088 22.3818 10.9267 21.9472V12.259C10.3811 12.369 9.85667 12.5834 9.37659 12.8927C9.07484 13.0857 8.79168 13.3128 8.53159 13.5704L8.52576 13.5769C8.52576 13.5769 8.23147 13.8125 8.01293 13.8125C7.79585 13.8125 7.5001 13.5769 7.5001 13.5769L7.49428 13.5704C7.23418 13.3128 6.95103 13.0857 6.64928 12.8927C5.95759 12.4408 5.17226 12.1977 4.37069 12.1875C3.44119 12.1875 2.65592 12.5336 2.0921 12.8927C1.79035 13.0857 1.5072 13.3128 1.2471 13.5704L1.24128 13.5769C1.24128 13.5769 0.946983 13.8125 0.728448 13.8125C0 13.8125 0 13 0 13C0 6.8575 4.91703 2.01175 10.9267 1.64775V0.8125C10.9267 0.597012 11.0035 0.390349 11.1401 0.237976C11.2767 0.0856024 11.462 0 11.6552 0V0Z" fill="#AB47BC"/>
</svg>
