<svg width="25" height="24" viewBox="0 0 25 24" fill="none" xmlns="http://www.w3.org/2000/svg">
<path d="M13.6838 8.4C16.6125 8.4 18.2753 10.2876 18.5165 12.5688H18.5902C20.4753 12.5688 22.0038 14.0532 22.0038 15.8844C22.0038 17.7156 20.4753 19.2 18.5902 19.2H8.77739C6.89231 19.2 5.36381 17.7156 5.36381 15.8844C5.36381 14.0532 6.89231 12.5688 8.77739 12.5688H8.85108C9.09355 10.272 10.754 8.4 13.6838 8.4ZM13.6838 9.6C11.7227 9.6 10.0147 11.124 10.0147 13.23C10.0147 13.5636 9.7128 13.8252 9.36692 13.8252H8.71321C7.51988 13.824 6.55238 14.76 6.55238 15.912C6.55238 17.064 7.51988 18 8.71321 18H18.6544C19.8477 18 20.8152 17.064 20.8152 15.912C20.8152 14.76 19.8477 13.824 18.6544 13.824H18.0007C17.6548 13.8252 17.3529 13.5636 17.3529 13.23C17.3529 11.0976 15.6438 9.6 13.6838 9.6ZM5.12966 11.64C5.17535 11.773 5.17324 11.9181 5.1237 12.0497C5.07416 12.1813 4.98034 12.2912 4.85867 12.36L4.76121 12.4032L3.80916 12.7344C3.66866 12.784 3.51483 12.7786 3.37809 12.7193C3.24134 12.6599 3.13165 12.5509 3.0707 12.4138C3.00974 12.2767 3.00197 12.1215 3.04892 11.9788C3.09586 11.8362 3.19411 11.7166 3.32422 11.6436L3.42168 11.6004L4.37492 11.2692C4.52387 11.2176 4.68702 11.2278 4.82853 11.2975C4.97004 11.3673 5.07835 11.4909 5.12966 11.6412V11.64ZM11.2116 6.6C11.6074 6.7944 11.9544 7.0476 12.2504 7.344C11.7678 7.4436 11.3162 7.596 10.9002 7.794C10.3634 7.46778 9.73118 7.33945 9.1112 7.43083C8.49122 7.52221 7.92176 7.82766 7.49973 8.2952C7.07769 8.76274 6.82916 9.36348 6.79643 9.99519C6.7637 10.6269 6.94879 11.2506 7.3202 11.76C6.92797 11.8776 6.55951 12.0492 6.22077 12.264C5.76125 11.5413 5.54845 10.6867 5.61483 9.83053C5.68121 8.97436 6.02312 8.1636 6.58842 7.52189C7.15372 6.88019 7.91139 6.44276 8.74587 6.27631C9.58036 6.10987 10.4459 6.22354 11.2104 6.6H11.2116ZM4.07659 6.804L4.17524 6.8424L5.08093 7.2876C5.21445 7.35313 5.31884 7.46674 5.37356 7.60607C5.42827 7.7454 5.42936 7.90037 5.37659 8.04046C5.32383 8.18056 5.22104 8.29565 5.08846 8.36308C4.95587 8.4305 4.80309 8.44539 4.66018 8.4048L4.55915 8.3664L3.65465 7.9212C3.52113 7.85567 3.41674 7.74206 3.36202 7.60273C3.3073 7.4634 3.30622 7.30843 3.35898 7.16833C3.41174 7.02824 3.51453 6.91315 3.64712 6.84572C3.77971 6.77829 3.93249 6.76341 4.0754 6.804H4.07659ZM12.4834 3.954C12.6085 4.01564 12.7082 4.11969 12.7651 4.24799C12.822 4.37629 12.8325 4.52069 12.7948 4.656L12.7567 4.7568L12.3158 5.6712C12.2509 5.806 12.1383 5.91139 12.0003 5.96664C11.8623 6.02188 11.7088 6.02298 11.5701 5.96971C11.4313 5.91644 11.3173 5.81266 11.2505 5.6788C11.1837 5.54493 11.169 5.39068 11.2092 5.2464L11.2472 5.1444L11.6882 4.23C11.7224 4.15899 11.7702 4.0955 11.8288 4.04317C11.8874 3.99084 11.9556 3.9507 12.0296 3.92506C12.1036 3.89942 12.1819 3.88878 12.2599 3.89374C12.338 3.89871 12.4143 3.91919 12.4845 3.954H12.4834ZM7.97867 3.9156L8.02265 4.014L8.35069 4.9764C8.39891 5.11807 8.3929 5.27282 8.33384 5.41024C8.27478 5.54766 8.16694 5.6578 8.03153 5.71902C7.89611 5.78024 7.74291 5.78809 7.60204 5.74105C7.46117 5.69401 7.34283 5.59547 7.27028 5.4648L7.2263 5.3664L6.89945 4.4052C6.85198 4.26387 6.85838 4.10975 6.91741 3.97293C6.97644 3.83611 7.08385 3.72641 7.21868 3.66524C7.35351 3.60407 7.50608 3.59583 7.6466 3.64212C7.78713 3.68842 7.90552 3.78592 7.97867 3.9156V3.9156Z" fill="#AB47BC"/>
</svg>
