<svg width="39" height="40" viewBox="0 0 39 40" fill="none" xmlns="http://www.w3.org/2000/svg">
<g filter="url(#filter0_d_7_76)">
<path d="M13.95 27.75C14.4407 27.75 14.9112 27.9449 15.2582 28.2918C15.6051 28.6388 15.8 29.1093 15.8 29.6C15.8 30.0906 15.6051 30.5612 15.2582 30.9081C14.9112 31.2551 14.4407 31.45 13.95 31.45C13.4594 31.45 12.9888 31.2551 12.6419 30.9081C12.2949 30.5612 12.1 30.0906 12.1 29.6C12.1 29.1093 12.2949 28.6388 12.6419 28.2918C12.9888 27.9449 13.4594 27.75 13.95 27.75ZM29.8841 15.207C31.0256 15.2156 32.1197 15.665 32.9377 16.4613C33.7557 17.2577 34.2342 18.3393 34.2734 19.4802C34.3126 20.6212 33.9093 21.7331 33.1479 22.5836C32.3864 23.4342 31.3257 23.9576 30.1875 24.0444L29.8323 24.0537L29.6787 24.0648H27.4476C27.8546 24.6901 28.0896 25.4375 28.0896 26.2385C28.0896 28.4863 26.4005 30.2826 24.1713 30.2826C21.955 30.2826 20.6304 28.9987 20.2715 27.2061C20.2437 27.0856 20.2404 26.9607 20.2617 26.8389C20.283 26.7171 20.3285 26.6008 20.3956 26.4969C20.4626 26.393 20.5498 26.3036 20.652 26.2339C20.7542 26.1643 20.8693 26.1159 20.9905 26.0915C21.1118 26.0671 21.2367 26.0673 21.3578 26.0921C21.479 26.1168 21.594 26.1656 21.696 26.2355C21.7979 26.3054 21.8849 26.3951 21.9516 26.4992C22.0183 26.6033 22.0635 26.7198 22.0845 26.8416C22.2824 27.8258 22.9077 28.4326 24.1713 28.4326C25.3534 28.4326 26.2377 27.4891 26.2377 26.2385C26.2377 25.184 25.4792 24.3034 24.4673 24.0981L24.2064 24.0629L5.63426 24.0648C5.40311 24.0652 5.18018 23.9791 5.00936 23.8234C4.83855 23.6676 4.73223 23.4536 4.71134 23.2234C4.69046 22.9932 4.75652 22.7635 4.89652 22.5796C5.03652 22.3956 5.24031 22.2708 5.46776 22.2296L5.63426 22.2148L23.9141 22.2129L24.0196 22.2037C24.1158 22.2037 24.2138 22.2074 24.31 22.2148H29.6787L29.725 22.2185L29.8841 22.2037C31.2235 22.2037 32.3242 21.1843 32.4482 19.8782L32.4611 19.6322C32.4822 18.9495 32.2312 18.2863 31.7634 17.7886C31.2955 17.2909 30.6491 16.9995 29.9664 16.9784C29.6283 16.9679 29.2915 17.0242 28.9752 17.1439C28.6589 17.2636 28.3692 17.4445 28.1228 17.6761C27.6251 18.144 27.3337 18.7904 27.3126 19.4731C27.3076 19.596 27.2782 19.7167 27.2261 19.8281C27.1739 19.9396 27.1 20.0395 27.0088 20.122C26.9176 20.2045 26.8108 20.268 26.6947 20.3087C26.5786 20.3495 26.4556 20.3667 26.3328 20.3593C26.21 20.3519 26.0899 20.3201 25.9795 20.2658C25.8692 20.2114 25.7708 20.1356 25.6901 20.0427C25.6094 19.9498 25.548 19.8418 25.5096 19.7249C25.4712 19.6081 25.4564 19.4847 25.4663 19.3621C25.5355 18.2375 26.0311 17.1817 26.852 16.4099C27.6729 15.6382 28.7573 15.2086 29.8841 15.2088V15.207ZM19.0653 6.5675C19.8505 6.56555 20.6284 6.71829 21.3545 7.01697C22.0807 7.31566 22.7409 7.75445 23.2975 8.3083C23.8541 8.86214 24.2962 9.5202 24.5985 10.2449C24.9007 10.9696 25.0573 11.7467 25.0593 12.5319C25.0612 13.3171 24.9085 14.095 24.6098 14.8212C24.3111 15.5473 23.8723 16.2076 23.3185 16.7642C22.7646 17.3208 22.1066 17.7628 21.3819 18.0651C20.6572 18.3674 19.8801 18.524 19.0949 18.5259H5.63426C5.40311 18.5263 5.18018 18.4402 5.00936 18.2845C4.83855 18.1287 4.73223 17.9147 4.71134 17.6845C4.69046 17.4543 4.75652 17.2246 4.89652 17.0407C5.03652 16.8567 5.24031 16.7319 5.46776 16.6907L5.63426 16.6759H19.0653C19.8815 16.6759 20.6794 16.4339 21.3581 15.9804C22.0368 15.527 22.5658 14.8825 22.8783 14.1284C23.1907 13.3744 23.2725 12.5446 23.1134 11.744C22.9543 10.9434 22.5614 10.208 21.9844 9.63072C21.4074 9.05343 20.6721 8.66019 19.8716 8.50073C19.0711 8.34127 18.2413 8.42274 17.4871 8.73484C16.7329 9.04695 16.0881 9.57567 15.6344 10.2542C15.1807 10.9327 14.9383 11.7305 14.9379 12.5467C14.9379 12.792 14.8405 13.0273 14.667 13.2008C14.4935 13.3742 14.2582 13.4717 14.0129 13.4717C13.7676 13.4717 13.5323 13.3742 13.3588 13.2008C13.1854 13.0273 13.0879 12.792 13.0879 12.5467C13.0879 10.9614 13.7177 9.44104 14.8386 8.32007C15.9596 7.1991 17.48 6.56935 19.0653 6.56935V6.5675ZM6.55001 5.55C7.04066 5.55 7.51122 5.74491 7.85816 6.09185C8.2051 6.43879 8.40001 6.90935 8.40001 7.4C8.40001 7.89065 8.2051 8.3612 7.85816 8.70814C7.51122 9.05509 7.04066 9.25 6.55001 9.25C6.05936 9.25 5.58881 9.05509 5.24186 8.70814C4.89492 8.3612 4.70001 7.89065 4.70001 7.4C4.70001 6.90935 4.89492 6.43879 5.24186 6.09185C5.58881 5.74491 6.05936 5.55 6.55001 5.55ZM32.45 3.7C32.9407 3.7 33.4112 3.89491 33.7582 4.24185C34.1051 4.58879 34.3 5.05935 34.3 5.55C34.3 6.04065 34.1051 6.5112 33.7582 6.85814C33.4112 7.20509 32.9407 7.4 32.45 7.4C31.9594 7.4 31.4888 7.20509 31.1419 6.85814C30.7949 6.5112 30.6 6.04065 30.6 5.55C30.6 5.05935 30.7949 4.58879 31.1419 4.24185C31.4888 3.89491 31.9594 3.7 32.45 3.7Z" fill="white"/>
</g>
<defs>
<filter id="filter0_d_7_76" x="-3" y="0" width="45" height="45" filterUnits="userSpaceOnUse" color-interpolation-filters="sRGB">
<feFlood flood-opacity="0" result="BackgroundImageFix"/>
<feColorMatrix in="SourceAlpha" type="matrix" values="0 0 0 0 0 0 0 0 0 0 0 0 0 0 0 0 0 0 127 0" result="hardAlpha"/>
<feOffset dy="4"/>
<feGaussianBlur stdDeviation="2"/>
<feComposite in2="hardAlpha" operator="out"/>
<feColorMatrix type="matrix" values="0 0 0 0 0 0 0 0 0 0 0 0 0 0 0 0 0 0 0.25 0"/>
<feBlend mode="normal" in2="BackgroundImageFix" result="effect1_dropShadow_7_76"/>
<feBlend mode="normal" in="SourceGraphic" in2="effect1_dropShadow_7_76" result="shape"/>
</filter>
</defs>
</svg>
