<svg width="40" height="38" viewBox="0 0 40 38" fill="none" xmlns="http://www.w3.org/2000/svg">
<g filter="url(#filter0_d_7_68)">
<path d="M22.3462 12.95C27.1278 12.95 29.8427 15.86 30.2366 19.3769H30.3569C33.4346 19.3769 35.9302 21.6653 35.9302 24.4884C35.9302 27.3115 33.4346 29.6 30.3569 29.6H14.3356C11.2578 29.6 8.76227 27.3115 8.76227 24.4884C8.76227 21.6653 11.2578 19.3769 14.3356 19.3769H14.4559C14.8518 15.836 17.5627 12.95 22.3462 12.95ZM22.3462 14.8C19.1443 14.8 16.3557 17.1495 16.3557 20.3962C16.3557 20.9105 15.8628 21.3138 15.2981 21.3138H14.2308C12.2825 21.312 10.7028 22.755 10.7028 24.531C10.7028 26.307 12.2825 27.75 14.2308 27.75H30.4617C32.41 27.75 33.9897 26.307 33.9897 24.531C33.9897 22.755 32.41 21.312 30.4617 21.312H29.3944C28.8297 21.3138 28.3368 20.9105 28.3368 20.3962C28.3368 17.1088 25.5462 14.8 22.3462 14.8ZM8.37998 17.945C8.45458 18.1501 8.45113 18.3737 8.37024 18.5766C8.28936 18.7795 8.13618 18.9489 7.93753 19.055L7.7784 19.1216L6.224 19.6322C5.99461 19.7087 5.74345 19.7004 5.5202 19.6089C5.29694 19.5173 5.11784 19.3493 5.01832 19.1379C4.9188 18.9265 4.90612 18.6872 4.98276 18.4674C5.05941 18.2475 5.21982 18.0631 5.43225 17.9505L5.59138 17.8839L7.14771 17.3733C7.3909 17.2938 7.65727 17.3095 7.88832 17.417C8.11936 17.5246 8.29619 17.7151 8.37998 17.9468V17.945ZM18.3099 10.175C18.9561 10.4747 19.5227 10.865 20.0059 11.322C19.218 11.4755 18.4806 11.7105 17.8014 12.0157C16.925 11.5128 15.8928 11.315 14.8806 11.4558C13.8684 11.5967 12.9386 12.0676 12.2496 12.7884C11.5605 13.5092 11.1547 14.4354 11.1013 15.4093C11.0478 16.3831 11.35 17.3446 11.9564 18.13C11.3161 18.3113 10.7145 18.5758 10.1614 18.907C9.41116 17.7928 9.06373 16.4753 9.1721 15.1554C9.28048 13.8355 9.83871 12.5855 10.7617 11.5962C11.6846 10.607 12.9217 9.93258 14.2841 9.67598C15.6466 9.41937 17.0597 9.59462 18.3079 10.175H18.3099ZM6.66063 10.4895L6.8217 10.5487L8.30041 11.235C8.5184 11.3361 8.68884 11.5112 8.77818 11.726C8.86751 11.9408 8.86928 12.1797 8.78314 12.3957C8.69699 12.6117 8.52917 12.7891 8.3127 12.8931C8.09622 12.997 7.84678 13.02 7.61345 12.9574L7.4485 12.8982L5.97173 12.2118C5.75374 12.1108 5.5833 11.9357 5.49397 11.7209C5.40463 11.5061 5.40286 11.2672 5.489 11.0512C5.57515 10.8352 5.74297 10.6578 5.95945 10.5538C6.17592 10.4499 6.42536 10.4269 6.65869 10.4895H6.66063ZM20.3863 6.09574C20.5906 6.19078 20.7534 6.35119 20.8463 6.54898C20.9392 6.74677 20.9564 6.96939 20.8947 7.17799L20.8326 7.33339L20.1126 8.74309C20.0067 8.95091 19.823 9.11339 19.5976 9.19856C19.3723 9.28373 19.1217 9.28541 18.8952 9.20329C18.6686 9.12116 18.4825 8.96117 18.3735 8.7548C18.2644 8.54843 18.2403 8.31063 18.306 8.08819L18.3681 7.93094L19.088 6.52124C19.1439 6.41177 19.2219 6.31388 19.3176 6.23321C19.4132 6.15254 19.5247 6.09066 19.6454 6.05113C19.7662 6.0116 19.894 5.99519 20.0215 6.00285C20.149 6.0105 20.2736 6.04207 20.3882 6.09574H20.3863ZM13.0315 6.03654L13.1033 6.18824L13.6389 7.67194C13.7176 7.89034 13.7078 8.12892 13.6114 8.34078C13.515 8.55264 13.3389 8.72244 13.1178 8.81681C12.8967 8.91119 12.6466 8.92331 12.4166 8.85078C12.1866 8.77826 11.9934 8.62634 11.8749 8.42489L11.8031 8.27319L11.2695 6.79134C11.192 6.57345 11.2024 6.33585 11.2988 6.12492C11.3952 5.91399 11.5706 5.74487 11.7907 5.65057C12.0108 5.55627 12.2599 5.54357 12.4894 5.61493C12.7188 5.6863 12.9121 5.83662 13.0315 6.03654Z" fill="white"/>
</g>
<defs>
<filter id="filter0_d_7_68" x="-3" y="0" width="46.8114" height="45" filterUnits="userSpaceOnUse" color-interpolation-filters="sRGB">
<feFlood flood-opacity="0" result="BackgroundImageFix"/>
<feColorMatrix in="SourceAlpha" type="matrix" values="0 0 0 0 0 0 0 0 0 0 0 0 0 0 0 0 0 0 127 0" result="hardAlpha"/>
<feOffset dy="4"/>
<feGaussianBlur stdDeviation="2"/>
<feComposite in2="hardAlpha" operator="out"/>
<feColorMatrix type="matrix" values="0 0 0 0 0 0 0 0 0 0 0 0 0 0 0 0 0 0 0.25 0"/>
<feBlend mode="normal" in2="BackgroundImageFix" result="effect1_dropShadow_7_68"/>
<feBlend mode="normal" in="SourceGraphic" in2="effect1_dropShadow_7_68" result="shape"/>
</filter>
</defs>
</svg>
