<svg width="30" height="30" viewBox="0 0 30 30" fill="none" xmlns="http://www.w3.org/2000/svg">
<path d="M27.1875 0.9375C26.1521 0.9375 25.3125 1.77598 25.3125 2.8125V7.15371C22.9746 3.89766 19.1836 1.875 15 1.875C9.46289 1.875 4.60488 5.41055 2.90508 10.6758C2.58645 11.6607 3.12756 12.7195 4.1127 13.0359C5.10234 13.3582 6.15645 12.8126 6.47402 11.8295C7.66992 8.11523 11.0977 5.625 15 5.625C17.959 5.625 20.6402 7.06348 22.2891 9.375H19.6875C18.6521 9.375 17.8125 10.2135 17.8125 11.25C17.8125 12.2865 18.6521 13.125 19.6875 13.125H27.1875C28.2229 13.125 29.0625 12.2865 29.0625 11.25V2.8125C29.0625 1.77598 28.2246 0.9375 27.1875 0.9375ZM25.8867 16.9688C24.8953 16.6501 23.843 17.1921 23.5254 18.1752C22.3301 21.8848 18.9023 24.375 15 24.375C12.041 24.375 9.36035 22.9365 7.71094 20.625H10.3125C11.3479 20.625 12.1875 19.7865 12.1875 18.75C12.1875 17.7135 11.3479 16.875 10.3125 16.875H2.8125C1.77715 16.875 0.9375 17.7135 0.9375 18.75V27.1875C0.9375 28.224 1.77715 29.0625 2.8125 29.0625C3.84785 29.0625 4.6875 28.224 4.6875 27.1875V22.8463C7.02539 26.1035 10.8164 28.125 14.9473 28.125C20.4814 28.125 25.3418 24.5895 27.041 19.3242C27.416 18.3398 26.8711 17.2324 25.8867 16.9688Z" fill="#AB47BC"/>
</svg>
